<?xml version="1.0" encoding="utf-8"?>
<COLLADA xmlns="http://www.collada.org/2005/11/COLLADASchema" version="1.4.1" xmlns:xsi="http://www.w3.org/2001/XMLSchema-instance">
  <asset>
    <contributor>
      <author>Blender User</author>
      <authoring_tool>Blender 3.0.1</authoring_tool>
    </contributor>
    <created>2025-05-21T09:22:41</created>
    <modified>2025-05-21T09:22:41</modified>
    <unit name="meter" meter="1"/>
    <up_axis>Z_UP</up_axis>
  </asset>
  <library_effects>
    <effect id="Material_016-effect">
      <profile_COMMON>
        <technique sid="common">
          <lambert>
            <emission>
              <color sid="emission">0 0 0 1</color>
            </emission>
            <diffuse>
              <color sid="diffuse">0.5271153 0.5271152 0.5271152 1</color>
            </diffuse>
            <index_of_refraction>
              <float sid="ior">1.45</float>
            </index_of_refraction>
          </lambert>
        </technique>
      </profile_COMMON>
    </effect>
  </library_effects>
  <library_images/>
  <library_materials>
    <material id="Material_016-material" name="Material.016">
      <instance_effect url="#Material_016-effect"/>
    </material>
  </library_materials>
  <library_geometries>
    <geometry id="Mesh-1_010-mesh" name="Mesh-1.010">
      <mesh>
        <source id="Mesh-1_010-mesh-positions">
          <float_array id="Mesh-1_010-mesh-positions-array" count="390">0.01128911 0.0272544 0.001199901 0.005755126 0.0289331 0.001199901 -0.01128911 0.0272544 0.001199901 0.01128911 -0.0272544 0.001199901 0.01638925 -0.02452838 0.001199901 0.02452838 -0.01638925 0.001199901 0 0.02949988 0.001199901 -0.005755126 0.0289331 0.001199901 0.0272544 0.01128911 0.001199901 0.02452838 0.01638925 0.001199901 0.02085959 -0.02085953 0.001199901 -0.02452838 0.01638925 0.001199901 -0.0272544 0.01128911 0.001199901 -0.02085959 0.02085959 0.001199901 0.02085959 0.02085959 0.001199901 0.01638925 0.02452838 0.001199901 -0.0289331 -0.005755126 0.001199901 -0.0272544 -0.01128911 0.001199901 -0.02949988 0 0.001199901 0.0272544 -0.01128911 0.001199901 0.0289331 -0.005755126 0.001199901 0.02949988 0 0.001199901 -0.01128911 -0.0272544 0.001199901 -0.005755126 -0.0289331 0.001199901 0 -0.02949988 0.001199901 -0.02085959 -0.02085953 0.001199901 -0.01638925 -0.02452838 0.001199901 -0.02452838 -0.01638925 0.001199901 -0.0289331 0.005755126 0.001199901 0.005755126 -0.0289331 0.001199901 0.0289331 0.005755126 0.001199901 -0.01638925 0.02452838 0.001199901 -0.02452838 -0.01638925 0 -0.0272544 -0.01128911 0 -0.02085959 -0.02085959 0 -0.005755126 -0.0289331 0 -0.01128911 -0.0272544 0 0 -0.02949988 0 -0.01638925 0.02452838 0 -0.01128911 0.0272544 0 -0.02452838 0.01638925 0 -0.02085959 0.02085959 0 0.0272544 -0.01128911 0 0.02452838 -0.01638925 0 0.01638925 -0.02452838 0 -0.02949988 0 0 -0.0289331 0.005755126 0 -0.0272544 0.01128911 0 0.02085959 -0.02085959 0 0.01128911 0.0272544 0 0.01638925 0.02452838 0 0.02085959 0.02085959 0 0.02452838 0.01638925 0 0.0272544 0.01128911 0 0 0.02949988 0 0.005755126 0.0289331 0 0.01128911 -0.0272544 0 0.005755126 -0.0289331 0 0.0289331 0.005755126 0 0.02949988 0 0 -0.01638925 -0.02452838 0 0.0289331 -0.005755126 0 -0.0289331 -0.005755126 0 -0.005755126 0.0289331 0 0.02949988 0 0 0.0289331 0.005755126 0 0.0272544 0.01128911 0 0.02452838 0.01638925 0 0.02085959 0.02085959 0 0.01638925 0.02452838 0 0.01128911 0.0272544 0 0.005755126 0.0289331 0 0 0.02949988 0 -0.005755126 0.0289331 0 -0.01128911 0.0272544 0 -0.01638925 0.02452838 0 -0.02085959 0.02085953 0 -0.02452838 0.01638925 0 -0.0272544 0.01128911 0 -0.0289331 0.005755126 0 -0.02949988 0 0 -0.0289331 -0.005755126 0 -0.0272544 -0.01128911 0 -0.02452838 -0.01638925 0 -0.02085959 -0.02085953 0 -0.01638925 -0.02452838 0 -0.01128911 -0.0272544 0 -0.005755126 -0.0289331 0 0 -0.02949988 0 0.005755126 -0.0289331 0 0.01128911 -0.0272544 0 0.01638925 -0.02452838 0 0.02085953 -0.02085959 0 0.02452838 -0.01638925 0 0.0272544 -0.01128911 0 0.0289331 -0.005755126 0 0.02949988 0 0 0.02949988 0 0.001199901 0.0289331 0.005755126 0.001199901 0.0272544 0.01128911 0.001199901 0.02452838 0.01638925 0.001199901 0.02085959 0.02085959 0.001199901 0.01638925 0.02452838 0.001199901 0.01128911 0.0272544 0.001199901 0.005755126 0.0289331 0.001199901 0 0.02949988 0.001199901 -0.005755126 0.0289331 0.001199901 -0.01128911 0.0272544 0.001199901 -0.01638925 0.02452838 0.001199901 -0.02085959 0.02085953 0.001199901 -0.02452838 0.01638925 0.001199901 -0.0272544 0.01128911 0.001199901 -0.0289331 0.005755126 0.001199901 -0.02949988 0 0.001199901 -0.0289331 -0.005755126 0.001199901 -0.0272544 -0.01128911 0.001199901 -0.02452838 -0.01638925 0.001199901 -0.02085959 -0.02085953 0.001199901 -0.01638925 -0.02452838 0.001199901 -0.01128911 -0.0272544 0.001199901 -0.005755126 -0.0289331 0.001199901 0 -0.02949988 0.001199901 0.005755126 -0.0289331 0.001199901 0.01128911 -0.0272544 0.001199901 0.01638925 -0.02452838 0.001199901 0.02085953 -0.02085959 0.001199901 0.02452838 -0.01638925 0.001199901 0.0272544 -0.01128911 0.001199901 0.0289331 -0.005755126 0.001199901 0.02949988 0 0.001199901</float_array>
          <technique_common>
            <accessor source="#Mesh-1_010-mesh-positions-array" count="130" stride="3">
              <param name="X" type="float"/>
              <param name="Y" type="float"/>
              <param name="Z" type="float"/>
            </accessor>
          </technique_common>
        </source>
        <source id="Mesh-1_010-mesh-normals">
          <float_array id="Mesh-1_010-mesh-normals-array" count="129">0 0 1 0 0 1 0 0 1 -2.78799e-7 0 1 0 0 1 0 0 1 -1.39395e-7 0 1 2.78797e-7 0 1 0 0 1 0 0 -1 0.9951869 0.09799575 0 0.9807879 0.1950772 0 0.9238803 0.3826816 0 0.8314677 0.5555732 0 0.7071068 0.7071068 0 0.5555732 0.8314677 0 0.3826816 0.9238803 0 0.1950772 0.9807879 0 0 1 0 -0.1950772 0.9807879 0 -0.3826816 0.9238803 0 -0.5555732 0.8314677 0 -0.7071068 0.7071068 0 -0.8314677 0.5555732 0 -0.9238803 0.3826816 0 -0.9807879 0.1950772 0 -1 0 0 -0.9807879 -0.1950772 0 -0.9238803 -0.3826816 0 -0.8314677 -0.5555732 0 -0.7071068 -0.7071068 0 -0.5555732 -0.8314677 0 -0.3826816 -0.9238803 0 -0.1950772 -0.9807879 0 0 -1 0 0.1950772 -0.9807879 0 0.3826816 -0.9238803 0 0.5555732 -0.8314677 0 0.7071068 -0.7071068 0 0.8314677 -0.5555732 0 0.9238803 -0.3826816 0 0.9807879 -0.1950772 0 0.9951869 -0.09799575 0</float_array>
          <technique_common>
            <accessor source="#Mesh-1_010-mesh-normals-array" count="43" stride="3">
              <param name="X" type="float"/>
              <param name="Y" type="float"/>
              <param name="Z" type="float"/>
            </accessor>
          </technique_common>
        </source>
        <vertices id="Mesh-1_010-mesh-vertices">
          <input semantic="POSITION" source="#Mesh-1_010-mesh-positions"/>
        </vertices>
        <triangles material="Material_016-material" count="124">
          <input semantic="VERTEX" source="#Mesh-1_010-mesh-vertices" offset="0"/>
          <input semantic="NORMAL" source="#Mesh-1_010-mesh-normals" offset="1"/>
          <p>14 0 15 0 0 0 9 1 14 1 0 1 8 2 9 2 0 2 21 1 30 1 8 1 19 1 20 1 21 1 5 1 19 1 3 1 10 3 5 3 4 3 3 4 4 4 5 4 24 1 29 1 3 1 22 1 23 1 24 1 25 5 26 5 22 5 17 6 27 6 25 6 16 1 17 1 18 1 12 1 28 1 18 1 11 7 12 7 13 7 31 1 13 1 2 1 6 1 7 1 2 1 1 1 6 1 2 1 0 1 1 1 2 1 8 1 0 1 3 1 19 1 21 1 8 1 19 1 8 1 3 1 22 1 24 1 3 1 17 8 25 8 22 8 18 1 17 1 12 1 13 1 12 1 2 1 2 1 12 1 0 1 17 1 3 1 0 1 17 1 22 1 3 1 12 1 17 1 0 1 32 9 33 9 34 9 36 9 60 9 34 9 35 9 36 9 37 9 56 9 57 9 37 9 44 9 56 9 36 9 48 9 44 9 43 9 42 9 43 9 44 9 59 9 61 9 42 9 58 9 59 9 53 9 52 9 53 9 51 9 49 9 50 9 51 9 54 9 55 9 49 9 63 9 54 9 39 9 38 9 39 9 40 9 41 9 38 9 40 9 47 9 40 9 39 9 45 9 46 9 47 9 33 9 62 9 45 9 34 9 33 9 36 9 37 9 36 9 56 9 44 9 36 9 42 9 59 9 42 9 53 9 49 9 51 9 53 9 54 9 49 9 39 9 47 9 39 9 33 9 33 9 45 9 47 9 36 9 33 9 53 9 53 9 42 9 36 9 49 9 53 9 39 9 33 9 39 9 53 9 64 10 65 11 98 11 64 10 98 11 97 10 65 11 66 12 99 12 65 11 99 12 98 11 66 12 67 13 100 13 66 12 100 13 99 12 67 13 68 14 101 14 67 13 101 14 100 13 68 14 69 15 102 15 68 14 102 15 101 14 69 15 70 16 103 16 69 15 103 16 102 15 70 16 71 17 104 17 70 16 104 17 103 16 71 17 72 18 105 18 71 17 105 18 104 17 72 18 73 19 106 19 72 18 106 19 105 18 73 19 74 20 107 20 73 19 107 20 106 19 74 20 75 21 108 21 74 20 108 21 107 20 75 21 76 22 109 22 75 21 109 22 108 21 76 22 77 23 110 23 76 22 110 23 109 22 77 23 78 24 111 24 77 23 111 24 110 23 78 24 79 25 112 25 78 24 112 25 111 24 79 25 80 26 113 26 79 25 113 26 112 25 80 26 81 27 114 27 80 26 114 27 113 26 81 27 82 28 115 28 81 27 115 28 114 27 82 28 83 29 116 29 82 28 116 29 115 28 83 29 84 30 117 30 83 29 117 30 116 29 84 30 85 31 118 31 84 30 118 31 117 30 85 31 86 32 119 32 85 31 119 32 118 31 86 32 87 33 120 33 86 32 120 33 119 32 87 33 88 34 121 34 87 33 121 34 120 33 88 34 89 35 122 35 88 34 122 35 121 34 89 35 90 36 123 36 89 35 123 36 122 35 90 36 91 37 124 37 90 36 124 37 123 36 91 37 92 38 125 38 91 37 125 38 124 37 92 38 93 39 126 39 92 38 126 39 125 38 93 39 94 40 127 40 93 39 127 40 126 39 94 40 95 41 128 41 94 40 128 41 127 40 95 41 96 42 129 42 95 41 129 42 128 41</p>
        </triangles>
      </mesh>
    </geometry>
  </library_geometries>
  <library_visual_scenes>
    <visual_scene id="Scene" name="Scene">
      <node id="Object-1" name="Object-1" type="NODE">
        <matrix sid="transform">1 0 0 0 0 1 0 0 0 0 1 0 0 0 0 1</matrix>
        <instance_geometry url="#Mesh-1_010-mesh" name="Object-1">
          <bind_material>
            <technique_common>
              <instance_material symbol="Material_016-material" target="#Material_016-material"/>
            </technique_common>
          </bind_material>
        </instance_geometry>
      </node>
    </visual_scene>
  </library_visual_scenes>
  <scene>
    <instance_visual_scene url="#Scene"/>
  </scene>
</COLLADA>